<?xml version="1.0" standalone="no"?>
<!DOCTYPE svg PUBLIC "-//W3C//DTD SVG 20010904//EN"
 "http://www.w3.org/TR/2001/REC-SVG-20010904/DTD/svg10.dtd">
<svg version="1.0" xmlns="http://www.w3.org/2000/svg"
 width="48.000000pt" height="48.000000pt" viewBox="0 0 48.000000 48.000000"
 preserveAspectRatio="xMidYMid meet">

<g transform="translate(0.000000,48.000000) scale(0.100000,-0.100000)"
fill="#000000" stroke="none">
<path d="M247 443 c-2 -5 -10 -26 -17 -48 -7 -22 -23 -56 -36 -75 -21 -30 -28
-34 -62 -31 -50 3 -72 -18 -72 -70 0 -28 4 -39 15 -39 11 0 15 11 15 40 0 39
1 40 35 40 l36 0 -3 -92 -3 -93 -32 -3 c-29 -3 -32 -1 -35 30 -4 42 -22 43
-26 2 -4 -41 20 -64 67 -64 55 0 61 11 61 122 0 91 2 100 30 145 17 26 30 50
30 54 0 4 5 20 10 34 9 23 13 25 26 14 16 -13 16 -37 -1 -116 l-7 -33 45 0
c66 0 72 -13 47 -101 -25 -91 -38 -102 -109 -93 -43 5 -53 4 -49 -7 6 -17 64
-30 104 -24 45 8 63 33 85 121 20 76 20 78 1 103 -11 16 -31 27 -49 29 -30 3
-30 4 -29 61 1 45 -4 64 -18 80 -19 21 -51 28 -59 14z"/>
</g>
</svg>
